<svg width="76" height="28" viewBox="0 0 76 28" fill="none" xmlns="http://www.w3.org/2000/svg">
<path d="M18.1144 11.7238C18.1144 13.4158 17.3093 15.0676 15.2564 15.9943C17.8326 16.8 18.7987 19.5396 18.7987 20.9094C18.7987 25.8245 15.0953 27.436 10.5064 27.436C7.00424 27.436 3.54237 27.436 0 27.436V5.27771C3.46186 5.27771 6.96398 5.27771 10.5064 5.27771C14.8538 5.318 18.1144 7.25181 18.1144 11.7238ZM4.10593 14.1813H10.5064C13.1229 14.1813 13.9682 13.0935 13.9682 11.8043C13.9682 10.7971 13.1631 9.10505 10.5064 9.10505H4.10593V14.1813ZM4.10593 23.5684H10.5064C12.197 23.5684 14.6525 23.0043 14.6525 20.9094C14.6525 18.9353 12.2373 17.8878 10.5064 17.8878H4.10593V23.5684Z" fill="white"/>
<path d="M65.0913 14.4633L70.9684 5.318H76.0002V5.51944L67.1845 18.3309V27.4763H62.998V18.2907L54.5044 5.47915V5.27771H59.4557L65.0913 14.4633Z" fill="white"/>
<path d="M16.1418 4.2705L22.341 9.5482L26.0041 5.31799L19.805 0L20.0465 3.90791L16.1418 4.2705Z" fill="white"/>
<path d="M34.7797 5.31799H29.7479L20.731 16.0345L29.7479 27.436H34.7797L25.803 16.0345L34.7797 5.31799Z" fill="white"/>
<path d="M50.1167 10.6359C49.3519 9.38702 47.2586 8.17839 44.8836 8.17839C41.7841 8.17839 40.2947 9.4676 40.2947 11.1194C40.2947 13.0532 42.5892 13.577 45.2057 13.8993C49.8349 14.4633 54.1019 15.6719 54.1019 20.9496C54.1019 25.8647 49.7544 28 44.8031 28C40.2947 28 36.7925 26.5899 35.1824 22.5611L38.6442 20.7482C39.6103 23.1654 42.1866 24.2532 44.8836 24.2532C47.5002 24.2532 49.9557 23.3266 49.9557 20.9496C49.9557 18.8546 47.782 18.0086 44.8434 17.6863C40.3349 17.1626 36.1485 15.9539 36.1485 10.9985C36.1485 6.44602 40.6167 4.59278 44.7226 4.55249C48.1845 4.55249 51.7269 5.5194 53.4175 8.94386L50.1167 10.6359Z" fill="white"/>
</svg>
